<?xml version="1.0" standalone="no"?>
<!DOCTYPE svg PUBLIC "-//W3C//DTD SVG 20010904//EN"
 "http://www.w3.org/TR/2001/REC-SVG-20010904/DTD/svg10.dtd">
<svg version="1.0" xmlns="http://www.w3.org/2000/svg"
 width="263.000000pt" height="191.000000pt" viewBox="0 0 263.000000 191.000000"
 preserveAspectRatio="xMidYMid meet">

<g transform="translate(0.000000,191.000000) scale(0.100000,-0.100000)"
fill="#000000" stroke="none">
<path d="M643 1340 c-71 -10 -117 -29 -70 -30 29 0 36 -24 17 -59 -5 -10 -16
-52 -24 -92 -38 -189 -28 -456 18 -477 32 -14 46 -4 46 36 0 20 5 84 12 144
l12 107 47 -2 c26 -1 45 -5 43 -8 -2 -4 10 -12 26 -19 16 -7 41 -23 54 -37 14
-14 30 -22 36 -18 5 3 10 0 10 -7 0 -7 3 -44 5 -82 4 -57 2 -74 -16 -102 -42
-68 -148 -114 -274 -120 -44 -2 -83 -3 -87 -4 -5 0 -8 -4 -8 -10 0 -6 35 -10
84 -10 105 0 149 8 142 26 -3 8 -1 14 4 14 6 0 10 -7 10 -16 0 -12 7 -14 33
-9 56 13 107 37 100 48 -3 6 -1 7 6 3 17 -11 84 42 77 61 -3 8 -2 11 4 8 10
-6 30 56 30 93 0 69 -41 153 -59 123 -6 -10 -10 -9 -14 4 -4 9 -3 13 2 10 5
-3 12 -1 15 4 9 13 -37 47 -90 67 l-45 17 28 12 c15 7 45 30 65 53 35 38 37
45 35 97 -2 42 -10 65 -33 97 -50 71 -122 94 -241 78z m154 -63 c29 -27 37
-43 43 -84 3 -27 2 -63 -2 -81 -10 -39 -68 -88 -132 -113 l-48 -18 5 32 c3 18
13 66 21 107 9 41 21 101 27 133 14 69 31 74 86 24z m126 -622 c-3 -9 -8 -14
-10 -11 -3 3 -2 9 2 15 9 16 15 13 8 -4z"/>
<path d="M1497 1272 c-9 -21 -19 -55 -22 -75 l-7 -37 -77 -2 c-42 0 -82 -1
-89 -1 -7 1 -11 -4 -9 -11 2 -7 35 -12 85 -14 l82 -3 0 -34 c0 -19 5 -37 11
-41 8 -4 7 -9 -2 -15 -12 -7 -12 -9 0 -9 8 0 23 -8 34 -17 18 -17 19 -17 33 2
13 18 14 18 15 -6 1 -13 7 10 15 51 7 41 13 76 13 78 1 1 38 2 84 3 45 0 100
4 122 8 30 7 9 9 -84 10 -123 1 -123 1 -117 24 3 12 8 38 11 57 6 32 3 36 -30
53 -48 23 -51 23 -68 -21z"/>
<path d="M1205 1045 c-22 -8 -41 -15 -42 -15 -2 0 -2 -6 0 -12 1 -8 -6 -12
-18 -10 -11 2 -17 1 -13 -3 4 -4 -3 -16 -16 -26 -31 -24 -64 -103 -72 -172 -6
-47 -3 -61 16 -92 28 -46 57 -64 101 -66 82 -1 119 18 206 109 l74 77 -4 -41
c-9 -80 28 -174 69 -174 30 0 79 49 156 157 17 24 33 43 34 43 1 0 10 -25 18
-55 9 -30 27 -67 40 -82 l25 -28 35 34 c19 18 49 61 66 95 17 33 25 52 18 42
-47 -70 -76 -101 -94 -101 -21 0 -23 20 -14 160 5 71 15 91 59 114 16 9 23 7
35 -11 8 -12 13 -25 10 -30 -3 -4 -1 -8 4 -8 19 0 21 29 3 51 -32 40 -113 22
-142 -32 -6 -12 -7 -19 -2 -16 5 3 15 2 22 -2 9 -6 1 -19 -28 -48 -23 -22 -41
-45 -41 -51 0 -7 -4 -12 -9 -12 -4 0 -41 -43 -81 -95 -70 -92 -99 -114 -101
-77 0 9 -1 42 -2 74 -1 31 1 54 6 51 4 -2 7 9 7 25 0 16 3 43 6 60 6 28 4 31
-17 29 -13 0 -27 -6 -31 -12 -5 -6 -8 -2 -8 8 0 10 -6 25 -14 32 -12 12 -15 8
-20 -28 -12 -74 -140 -216 -212 -236 -54 -15 -57 -14 -88 14 -24 23 -27 30
-21 73 3 26 8 65 11 87 l5 40 57 2 c75 1 126 23 146 62 20 37 21 75 3 90 -18
14 -52 19 -52 6 0 -5 8 -10 17 -9 9 0 15 -3 12 -7 -2 -4 0 -10 6 -14 14 -9 13
-48 -2 -63 -7 -7 -8 -12 -2 -13 5 0 -11 -9 -36 -19 -41 -17 -140 -27 -140 -14
0 13 25 52 54 83 19 21 25 32 14 28 -10 -3 -20 -2 -23 3 -9 14 13 22 34 11 15
-9 20 -7 24 9 6 23 4 24 -48 5z m-15 -60 c-7 -9 -23 -21 -34 -27 -19 -10 -20
-10 -7 5 7 10 10 17 6 17 -5 0 0 9 10 20 22 25 46 10 25 -15z m310 -296 c0 -5
-4 -9 -10 -9 -5 0 -10 7 -10 16 0 8 5 12 10 9 6 -3 10 -10 10 -16z"/>
<path d="M1165 990 c-3 -6 1 -7 9 -4 18 7 21 14 7 14 -6 0 -13 -4 -16 -10z"/>
<path d="M1985 991 c-8 -17 -12 -38 -9 -48 4 -12 3 -14 -3 -5 -7 9 -16 1 -33
-30 -26 -47 -31 -68 -30 -156 0 -64 28 -152 49 -152 5 0 16 -2 23 -5 23 -9 76
51 214 240 43 59 9 23 -59 -63 -27 -34 -70 -79 -97 -102 -39 -32 -49 -37 -54
-24 -11 28 -7 67 18 169 36 152 40 191 21 199 -24 9 -23 9 -40 -23z"/>
</g>
</svg>
