<?xml version="1.0" standalone="no"?>
<!DOCTYPE svg PUBLIC "-//W3C//DTD SVG 20010904//EN"
 "http://www.w3.org/TR/2001/REC-SVG-20010904/DTD/svg10.dtd">
<svg version="1.0" xmlns="http://www.w3.org/2000/svg"
 width="225.000000pt" height="225.000000pt" viewBox="0 0 225.000000 225.000000"
 preserveAspectRatio="xMidYMid meet">

<g transform="translate(0.000000,225.000000) scale(0.100000,-0.100000)"
fill="#000000" stroke="none">
<path d="M915 1800 l-210 -168 -3 99 -3 99 -139 0 -140 0 0 -213 0 -214 -70
-55 -69 -55 24 -23 c15 -14 28 -19 37 -14 7 4 182 143 388 308 206 164 380
303 386 307 6 5 166 -117 403 -306 217 -173 396 -315 399 -315 3 0 16 10 28
21 l23 22 -382 305 c-210 168 -400 320 -422 338 l-40 32 -210 -168z m-285
-134 l0 -94 -64 -51 c-35 -28 -67 -51 -70 -51 -3 0 -6 65 -6 145 l0 145 70 0
70 0 0 -94z"/>
<path d="M773 1476 l-353 -281 0 -457 0 -458 245 0 245 0 0 280 0 280 215 0
215 0 0 -280 0 -280 245 0 245 0 0 458 0 457 -307 245 c-169 135 -327 261
-352 281 l-46 37 -352 -282z m685 -75 l302 -241 0 -405 0 -405 -175 0 -175 0
0 280 0 280 -285 0 -285 0 0 -280 0 -280 -175 0 -175 0 0 405 0 405 318 254
c268 215 319 252 332 242 8 -7 151 -122 318 -255z"/>
</g>
</svg>
