<?xml version="1.0" standalone="no"?>
<!DOCTYPE svg PUBLIC "-//W3C//DTD SVG 20010904//EN"
 "http://www.w3.org/TR/2001/REC-SVG-20010904/DTD/svg10.dtd">
<svg version="1.0" xmlns="http://www.w3.org/2000/svg"
 width="1595.000000pt" height="615.000000pt" viewBox="0 0 1595.000000 615.000000"
 preserveAspectRatio="xMidYMid meet">

<g transform="translate(0.000000,615.000000) scale(0.100000,-0.100000)"
fill="#000000" stroke="none">
<path d="M2700 6133 c-285 -29 -499 -73 -726 -148 -1014 -340 -1700 -1129
-1913 -2201 -23 -117 -49 -311 -53 -404 l-3 -65 506 -3 506 -2 7 112 c72 1189
626 2048 1435 2228 403 89 857 23 1204 -176 141 -80 241 -158 373 -289 181
-181 306 -358 434 -614 172 -346 269 -684 332 -1161 l13 -95 504 -3 c278 -1
508 1 513 6 8 8 -12 207 -38 362 -242 1459 -1423 2470 -2874 2458 -102 -1
-201 -3 -220 -5z"/>
<path d="M13565 6134 c-727 -60 -1249 -242 -1743 -609 -130 -96 -392 -355
-492 -485 -219 -285 -396 -620 -504 -959 -40 -124 -92 -328 -98 -382 l-3 -34
499 0 500 0 6 30 c4 17 13 66 19 110 7 44 30 154 52 245 185 758 603 1277
1212 1504 254 95 465 129 797 130 313 1 500 -25 735 -101 260 -83 456 -202
641 -387 242 -241 375 -505 454 -899 l12 -58 146 3 147 3 3 761 2 762 -22 5
c-13 2 -95 25 -183 51 -504 148 -1018 246 -1530 291 -172 15 -558 26 -650 19z"/>
<path d="M5700 5350 l0 -690 144 0 143 0 7 79 c8 103 48 257 86 339 79 169
209 292 385 365 240 100 514 137 1005 137 l310 0 2 -1132 3 -1133 470 0 470 0
3 1133 2 1132 313 0 c414 0 656 -23 865 -81 379 -107 548 -313 605 -740 l13
-94 152 -3 152 -3 -2 688 -3 688 -2562 3 -2563 2 0 -690z"/>
<path d="M11767 3097 c-42 -128 -77 -236 -77 -240 0 -4 223 -6 497 -5 l496 3
74 220 c40 121 76 228 79 238 5 16 -23 17 -493 17 l-498 0 -78 -233z"/>
<path d="M10 2813 c0 -74 32 -310 61 -456 97 -481 299 -920 599 -1297 347
-438 858 -775 1415 -935 295 -84 489 -110 840 -110 297 0 383 8 641 60 348 70
719 226 1014 426 698 474 1143 1246 1245 2159 8 74 15 147 15 163 l0 27 -504
0 -504 0 -6 -22 c-3 -13 -6 -50 -6 -83 0 -72 -24 -295 -45 -420 -88 -520 -277
-966 -547 -1291 -425 -509 -1076 -695 -1713 -488 -110 36 -323 140 -425 209
-490 330 -846 916 -989 1634 -30 150 -61 366 -61 427 l0 34 -515 0 -515 0 0
-37z"/>
<path d="M7780 1927 c0 -566 -4 -955 -10 -1007 -44 -360 -206 -459 -757 -460
l-163 0 0 -175 0 -175 1405 0 1405 0 0 173 0 174 -237 6 c-131 4 -273 13 -315
21 -194 36 -305 139 -347 321 -27 120 -31 265 -31 1138 l0 907 -475 0 -475 0
0 -923z"/>
<path d="M10720 2494 c0 -20 56 -252 81 -338 317 -1072 1069 -1799 2118 -2046
312 -73 508 -94 876 -94 643 0 1273 96 1963 301 l192 57 -2 771 -3 770 -147 3
-146 3 -12 -58 c-116 -589 -393 -984 -842 -1204 -460 -224 -1182 -262 -1712
-88 -417 137 -751 406 -992 800 -165 269 -297 657 -355 1047 l-12 82 -504 0
c-277 0 -503 -3 -503 -6z"/>
</g>
</svg>
