<?xml version="1.0" standalone="no"?>
<!DOCTYPE svg PUBLIC "-//W3C//DTD SVG 20010904//EN"
 "http://www.w3.org/TR/2001/REC-SVG-20010904/DTD/svg10.dtd">
<svg version="1.0" xmlns="http://www.w3.org/2000/svg"
 width="225.000000pt" height="225.000000pt" viewBox="0 0 225.000000 225.000000"
 preserveAspectRatio="xMidYMid meet">

<g transform="translate(0.000000,225.000000) scale(0.100000,-0.100000)"
fill="#000000" stroke="none">
<path d="M1055 1679 c-232 -29 -423 -202 -475 -427 -42 -185 16 -388 150 -522
106 -106 242 -162 395 -162 96 0 162 16 255 60 140 68 254 214 290 370 16 68
16 186 0 254 -63 275 -333 463 -615 427z m194 -74 c173 -46 310 -183 356 -356
26 -97 17 -221 -25 -324 l-12 -30 -16 25 c-54 80 -131 138 -209 155 -28 6 -39
2 -73 -28 -41 -35 -97 -57 -145 -57 -48 0 -104 22 -145 57 -34 30 -45 34 -73
28 -78 -17 -155 -75 -209 -155 l-16 -25 -12 30 c-42 103 -51 227 -25 324 45
170 183 309 352 356 65 18 186 18 252 0z m-314 -605 c4 -6 30 -23 58 -37 95
-50 241 -35 319 34 26 23 71 8 127 -43 27 -24 56 -62 65 -84 15 -37 15 -43 0
-65 -9 -14 -39 -43 -66 -64 -186 -149 -440 -149 -626 0 -27 21 -57 50 -66 64
-16 24 -16 28 2 68 38 84 162 168 187 127z"/>
<path d="M1066 1498 c-23 -7 -56 -28 -81 -52 -82 -82 -82 -200 0 -281 144
-144 384 -8 334 190 -17 65 -78 127 -141 143 -54 14 -59 14 -112 0z m101 -58
c25 0 83 -62 93 -99 19 -72 -26 -150 -100 -171 -98 -28 -197 70 -170 170 17
62 92 116 145 105 11 -3 25 -5 32 -5z"/>
</g>
</svg>
